<svg width="41" height="40" viewBox="0 0 41 40" fill="none" xmlns="http://www.w3.org/2000/svg">
<rect x="0.5" width="40" height="40" rx="1" fill="black"/>
<path d="M20.7363 14.986C21.516 14.986 22.4932 14.4589 23.0752 13.7562C23.6023 13.1193 23.9866 12.2298 23.9866 11.3404C23.9866 11.2196 23.9756 11.0988 23.9537 11C23.0862 11.0329 22.043 11.582 21.4171 12.3177C20.923 12.8777 20.4728 13.7562 20.4728 14.6566C20.4728 14.7884 20.4947 14.9201 20.5057 14.9641C20.5606 14.975 20.6485 14.986 20.7363 14.986ZM17.9911 28.2727C19.0563 28.2727 19.5284 27.559 20.8571 27.559C22.2077 27.559 22.5042 28.2508 23.6901 28.2508C24.8541 28.2508 25.6337 27.1747 26.3694 26.1205C27.193 24.9126 27.5334 23.7267 27.5554 23.6718C27.4785 23.6498 25.2494 22.7384 25.2494 20.1799C25.2494 17.9618 27.0063 16.9625 27.1052 16.8857C25.9412 15.2166 24.1733 15.1727 23.6901 15.1727C22.3834 15.1727 21.3183 15.9633 20.6485 15.9633C19.9237 15.9633 18.9684 15.2166 17.8374 15.2166C15.6852 15.2166 13.5 16.9955 13.5 20.3556C13.5 22.4419 14.3126 24.6491 15.3118 26.0766C16.1683 27.2845 16.915 28.2727 17.9911 28.2727Z" fill="white"/>
</svg>
