<svg width="38" height="38" viewBox="0 0 38 38" fill="none" xmlns="http://www.w3.org/2000/svg">
<rect width="38" height="38" rx="19" fill="white"/>
<path fill-rule="evenodd" clip-rule="evenodd" d="M27.208 19.1943C27.208 18.588 27.1536 18.0051 27.0525 17.4454H19V20.7527H23.6015C23.4032 21.8215 22.8009 22.727 21.8953 23.3333V25.4785H24.6585C26.2753 23.9901 27.208 21.7982 27.208 19.1943Z" fill="#4285F4"/>
<path fill-rule="evenodd" clip-rule="evenodd" d="M19 27.55C21.3085 27.55 23.2439 26.7843 24.6585 25.4785L21.8953 23.3332C21.1297 23.8462 20.1503 24.1494 19 24.1494C16.7731 24.1494 14.8882 22.6454 14.2159 20.6245H11.3594V22.8397C12.7662 25.634 15.6577 27.55 19 27.55Z" fill="#34A853"/>
<path fill-rule="evenodd" clip-rule="evenodd" d="M14.2158 20.6245C14.0448 20.1115 13.9477 19.5635 13.9477 19C13.9477 18.4365 14.0448 17.8885 14.2158 17.3755V15.1603H11.3594C10.7803 16.3145 10.45 17.6203 10.45 19C10.45 20.3797 10.7803 21.6855 11.3594 22.8397L14.2158 20.6245Z" fill="#FBBC05"/>
<path fill-rule="evenodd" clip-rule="evenodd" d="M19 13.8505C20.2553 13.8505 21.3823 14.2819 22.2684 15.1291L24.7207 12.6768C23.24 11.2972 21.3046 10.45 19 10.45C15.6577 10.45 12.7662 12.3659 11.3594 15.1602L14.2159 17.3755C14.8882 15.3545 16.7731 13.8505 19 13.8505Z" fill="#EA4335"/>
</svg>
