<svg width="24" height="24" viewBox="0 0 24 24" fill="none" xmlns="http://www.w3.org/2000/svg">
<path d="M9.54995 12L16.9 19.35C17.15 19.6 17.271 19.8917 17.263 20.225C17.255 20.5584 17.1256 20.85 16.875 21.1C16.6243 21.35 16.3326 21.475 16 21.475C15.6673 21.475 15.3756 21.35 15.125 21.1L7.42495 13.425C7.22495 13.225 7.07495 13 6.97495 12.75C6.87495 12.5 6.82495 12.25 6.82495 12C6.82495 11.75 6.87495 11.5 6.97495 11.25C7.07495 11 7.22495 10.775 7.42495 10.575L15.125 2.87503C15.375 2.62503 15.671 2.50403 16.013 2.51203C16.355 2.52003 16.6506 2.64936 16.9 2.90003C17.1493 3.1507 17.2743 3.44236 17.275 3.77503C17.2756 4.1077 17.1506 4.39936 16.9 4.65003L9.54995 12Z" fill="black"/>
</svg>
