<svg width="24" height="24" viewBox="0 0 24 24" fill="none" xmlns="http://www.w3.org/2000/svg">
<path d="M12 20C11.79 20 11.5764 19.9623 11.3592 19.8868C11.142 19.8114 10.9506 19.6907 10.785 19.5248L9.2325 18.099C7.6425 16.6355 6.2061 15.1836 4.9233 13.743C3.6405 12.3025 2.9994 10.7144 3 8.97878C3 7.56058 3.4725 6.37624 4.4175 5.42574C5.3625 4.47525 6.54 4 7.95 4C8.745 4 9.495 4.16958 10.2 4.50874C10.905 4.8479 11.505 5.31198 12 5.90099C12.495 5.31259 13.095 4.84881 13.8 4.50965C14.505 4.17049 15.255 4.0006 16.05 4C17.46 4 18.6375 4.47525 19.5825 5.42574C20.5275 6.37624 21 7.56058 21 8.97878C21 10.7138 20.3625 12.3055 19.0875 13.7539C17.8125 15.2023 16.365 16.6582 14.745 18.1216L13.215 19.5248C13.05 19.6907 12.8589 19.8114 12.6417 19.8868C12.4245 19.9623 12.2106 20 12 20ZM11.145 7.71146C10.71 7.09288 10.245 6.62125 9.75 6.29658C9.255 5.9719 8.655 5.80986 7.95 5.81047C7.05 5.81047 6.3 6.11221 5.7 6.7157C5.1 7.31919 4.8 8.07355 4.8 8.97878C4.8 9.76332 5.0775 10.597 5.6325 11.4799C6.1875 12.3628 6.8514 13.2189 7.6242 14.0481C8.397 14.8773 9.192 15.6543 10.0092 16.3791C10.8264 17.1039 11.49 17.6998 12 18.1669C12.51 17.6992 13.1739 17.1033 13.9917 16.3791C14.8095 15.6549 15.6045 14.8779 16.3767 14.0481C17.1489 13.2183 17.8125 12.3622 18.3675 11.4799C18.9225 10.5976 19.2 9.76392 19.2 8.97878C19.2 8.07355 18.9 7.31919 18.3 6.7157C17.7 6.11221 16.95 5.81047 16.05 5.81047C15.345 5.81047 14.745 5.97281 14.25 6.29748C13.755 6.62216 13.29 7.09348 12.855 7.71146C12.75 7.86233 12.6225 7.97548 12.4725 8.05092C12.3225 8.12636 12.165 8.16407 12 8.16407C11.835 8.16407 11.6775 8.12636 11.5275 8.05092C11.3775 7.97548 11.25 7.86233 11.145 7.71146Z" fill="black"/>
</svg>
