<svg width="24" height="24" viewBox="0 0 24 24" fill="none" xmlns="http://www.w3.org/2000/svg">
<path d="M12 20C11.79 20 11.5764 19.9623 11.3592 19.8868C11.142 19.8114 10.9506 19.6907 10.785 19.5248L9.2325 18.099C7.6425 16.6355 6.2061 15.1836 4.9233 13.743C3.6405 12.3025 2.9994 10.7144 3 8.97878C3 7.56058 3.4725 6.37624 4.4175 5.42574C5.3625 4.47525 6.54 4 7.95 4C8.745 4 9.495 4.16958 10.2 4.50874C10.905 4.8479 11.505 5.31198 12 5.90099C12.495 5.31259 13.095 4.84881 13.8 4.50965C14.505 4.17049 15.255 4.0006 16.05 4C17.46 4 18.6375 4.47525 19.5825 5.42574C20.5275 6.37624 21 7.56058 21 8.97878C21 10.7138 20.3625 12.3055 19.0875 13.7539C17.8125 15.2023 16.365 16.6582 14.745 18.1216L13.215 19.5248C13.05 19.6907 12.8589 19.8114 12.6417 19.8868C12.4245 19.9623 12.2106 20 12 20Z" fill="black"/>
</svg>
