<svg width="24" height="24" viewBox="0 0 24 24" fill="none" xmlns="http://www.w3.org/2000/svg">
<path fill-rule="evenodd" clip-rule="evenodd" d="M3.468 8.2407C3 9.093 3 10.1235 3 12.1827V13.5525C3 17.0625 3 18.8184 4.0548 19.9092C5.1096 21 6.8061 21 10.2 21H13.8C17.1939 21 18.8913 21 19.9452 19.9092C20.9991 18.8184 21 17.0634 21 13.5525V12.1836C21 10.1235 21 9.0939 20.532 8.2407C20.0658 7.3866 19.2117 6.8574 17.5044 5.7972L15.7044 4.6803C13.8999 3.5598 12.9972 3 12 3C11.0028 3 10.101 3.5598 8.2956 4.6803L6.4956 5.7972C4.7883 6.8574 3.9351 7.3866 3.468 8.2407ZM11.325 17.4C11.325 17.579 11.3961 17.7507 11.5227 17.8773C11.6493 18.0039 11.821 18.075 12 18.075C12.179 18.075 12.3507 18.0039 12.4773 17.8773C12.6039 17.7507 12.675 17.579 12.675 17.4V14.7C12.675 14.521 12.6039 14.3493 12.4773 14.2227C12.3507 14.0961 12.179 14.025 12 14.025C11.821 14.025 11.6493 14.0961 11.5227 14.2227C11.3961 14.3493 11.325 14.521 11.325 14.7V17.4Z" fill="black"/>
</svg>
