<svg width="24" height="24" viewBox="0 0 24 24" fill="none" xmlns="http://www.w3.org/2000/svg">
<path d="M12 12C10.9 12 9.95833 11.6083 9.175 10.825C8.39167 10.0417 8 9.1 8 8C8 6.9 8.39167 5.95833 9.175 5.175C9.95833 4.39167 10.9 4 12 4C13.1 4 14.0417 4.39167 14.825 5.175C15.6083 5.95833 16 6.9 16 8C16 9.1 15.6083 10.0417 14.825 10.825C14.0417 11.6083 13.1 12 12 12ZM4 18V17.2C4 16.6333 4.146 16.1127 4.438 15.638C4.73 15.1633 5.11733 14.8007 5.6 14.55C6.63333 14.0333 7.68333 13.646 8.75 13.388C9.81667 13.13 10.9 13.0007 12 13C13.1 12.9993 14.1833 13.1287 15.25 13.388C16.3167 13.6473 17.3667 14.0347 18.4 14.55C18.8833 14.8 19.271 15.1627 19.563 15.638C19.855 16.1133 20.0007 16.634 20 17.2V18C20 18.55 19.8043 19.021 19.413 19.413C19.0217 19.805 18.5507 20.0007 18 20H6C5.45 20 4.97933 19.8043 4.588 19.413C4.19667 19.0217 4.00067 18.5507 4 18ZM6 18H18V17.2C18 17.0167 17.9543 16.85 17.863 16.7C17.7717 16.55 17.6507 16.4333 17.5 16.35C16.6 15.9 15.6917 15.5627 14.775 15.338C13.8583 15.1133 12.9333 15.0007 12 15C11.0667 14.9993 10.1417 15.112 9.225 15.338C8.30833 15.564 7.4 15.9013 6.5 16.35C6.35 16.4333 6.229 16.55 6.137 16.7C6.045 16.85 5.99933 17.0167 6 17.2V18ZM12 10C12.55 10 13.021 9.80433 13.413 9.413C13.805 9.02167 14.0007 8.55067 14 8C13.9993 7.44933 13.8037 6.97867 13.413 6.588C13.0223 6.19733 12.5513 6.00133 12 6C11.4487 5.99867 10.978 6.19467 10.588 6.588C10.198 6.98133 10.002 7.452 10 8C9.998 8.548 10.194 9.019 10.588 9.413C10.982 9.807 11.4527 10.0027 12 10Z" fill="black"/>
</svg>
